<svg width="48" height="48" viewBox="0 0 48 48" fill="none" xmlns="http://www.w3.org/2000/svg">
<ellipse cx="24.2148" cy="37.7363" rx="8" ry="3" fill="#C8C8CC"/>
<path d="M13.7883 19.0916C9.24051 20.2456 7.11215 20.0623 7.08864 20.0586C6.8399 20.0309 6.62178 20.1889 6.57062 20.4339C6.56688 20.4573 6.08171 22.5135 3.56475 26.499C3.45428 26.6621 3.46756 26.8812 3.57621 27.0311C8.63297 34.0104 15.6157 33.2333 15.9128 33.1843C15.9871 33.1721 16.075 33.1499 16.1431 33.1005C16.2113 33.0511 16.256 32.9981 16.2945 32.9078C16.4199 32.6506 19.3472 26.2475 14.2905 19.2682C14.1818 19.1183 13.9778 19.0374 13.7884 19.0916L13.7883 19.0916ZM12.9827 28.7386C11.4151 29.8743 9.22889 29.5252 8.09306 27.9575C6.9573 26.39 7.30642 24.2037 8.87408 23.0679C10.4416 21.9321 12.6279 22.2813 13.7637 23.8489C14.8896 25.4029 14.5503 27.6028 12.9827 28.7386Z" fill="#FDD137"/>
<path d="M10.7502 24.6851L10.5638 26.3629L9.92827 26.23C9.65596 26.173 9.41346 26.3487 9.38275 26.6252C9.35204 26.9017 9.54538 27.1686 9.81769 27.2255L10.9434 27.4609C11.0706 27.4875 11.2038 27.4588 11.3048 27.3856C11.4059 27.3124 11.4646 27.2021 11.489 27.0656L11.7307 24.8901C11.7614 24.6136 11.568 24.3468 11.2957 24.2898C11.0234 24.2329 10.7809 24.4086 10.7502 24.6851Z" fill="#FDD137"/>
<path d="M44.4355 26.4984C41.9219 22.5366 41.4328 20.4571 41.4291 20.4336C41.3779 20.1886 41.1598 20.0306 40.911 20.0583C40.8876 20.0621 38.7826 20.2417 34.2113 19.0919C34.0218 19.0378 33.8178 19.1186 33.7092 19.2686C28.653 26.2483 31.5672 32.6413 31.7063 32.9084C31.741 32.9751 31.7895 33.0517 31.8577 33.1011C31.9259 33.1505 31.9902 33.1764 32.088 33.1849C32.3715 33.2239 39.3679 34.0103 44.4241 27.0306C44.5327 26.8807 44.546 26.6616 44.4355 26.4985L44.4355 26.4984ZM35.0177 28.7388C33.4501 27.6032 33.1006 25.417 34.2363 23.8493C35.3719 22.2816 37.5581 21.9321 39.1259 23.0678C40.6935 24.2035 41.043 26.3896 39.9073 27.9574C38.7815 29.5115 36.5854 29.8745 35.0177 28.7388Z" fill="#FDD137"/>
<path d="M37.1544 24.5677L37.4397 26.2316L38.0663 26.0613C38.3347 25.9883 38.5872 26.1494 38.6342 26.4236C38.6812 26.6978 38.504 26.9756 38.2355 27.0485L37.1257 27.3501C37.0003 27.3842 36.8657 27.3634 36.7605 27.2963C36.6553 27.2292 36.5901 27.1225 36.5577 26.9878L36.1878 24.8304C36.1407 24.5562 36.318 24.2784 36.5864 24.2054C36.855 24.1325 37.1074 24.2935 37.1544 24.5677Z" fill="#FDD137"/>
<path d="M36.4463 13.6073C27.9992 10.248 24.8682 7.54097 24.8356 7.50835C24.4768 7.18211 23.9549 7.18211 23.5961 7.50835C23.5636 7.54088 20.465 10.2154 11.9854 13.6073C11.6266 13.7376 11.3984 14.0964 11.3984 14.4552C11.3984 31.1538 23.2375 37.8724 23.7593 38.1333C23.8897 38.1986 24.0528 38.2637 24.2159 38.2637C24.379 38.2637 24.5094 38.2311 24.6725 38.1333C25.1616 37.8724 37.0334 31.1538 37.0334 14.4552C37.0334 14.0964 36.8052 13.7377 36.4465 13.6073H36.4463ZM24.2159 27.8272C20.4653 27.8272 17.4321 24.7942 17.4321 21.0434C17.4321 17.2928 20.4651 14.2596 24.2159 14.2596C27.9664 14.2596 30.9997 17.2926 30.9997 21.0434C30.9997 24.7614 27.9664 27.8272 24.2159 27.8272Z" fill="#606060"/>
<path d="M25.321 18.9291L23.1213 21.3496L22.2753 20.4186C21.9128 20.0197 21.3326 20.0197 20.9701 20.4186C20.6076 20.8175 20.6076 21.4559 20.9701 21.8548L22.4688 23.5039C22.638 23.6902 22.8797 23.7965 23.1214 23.7965C23.3632 23.7965 23.5808 23.6902 23.7741 23.5039L26.6264 20.3653C26.9889 19.9664 26.9889 19.328 26.6264 18.9291C26.2637 18.5302 25.6835 18.5302 25.321 18.9291Z" fill="#606060"/>
</svg>
