<svg width="42" height="49" fill="none" xmlns="http://www.w3.org/2000/svg"><path fill-rule="evenodd" clip-rule="evenodd" d="M39.321 11.036c.5.5.929 1.179 1.286 2.036s.536 1.643.536 2.357v30.857a2.48 2.48 0 0 1-.75 1.821c-.5.5-1.107.75-1.822.75h-36a2.48 2.48 0 0 1-1.821-.75A2.48 2.48 0 0 1 0 46.286V3.429c0-.714.25-1.322.75-1.822s1.107-.75 1.821-.75h24c.715 0 1.5.179 2.358.536.857.357 1.535.786 2.035 1.286l8.357 8.357zM27.43 4.5v10.072H37.5c-.179-.518-.375-.884-.59-1.098L28.528 5.09c-.215-.215-.58-.411-1.098-.59zm10.284 40.93V18H26.571a2.48 2.48 0 0 1-1.821-.75 2.48 2.48 0 0 1-.75-1.82V4.286H3.429v41.143h34.285zM23.946 29.545c.59.464 1.34.964 2.25 1.5a26.581 26.581 0 0 1 3.134-.188c2.625 0 4.206.438 4.741 1.313.286.393.304.857.054 1.393 0 .018-.009.035-.027.053l-.053.054v.027c-.108.678-.741 1.018-1.902 1.018-.857 0-1.884-.179-3.08-.536a19.524 19.524 0 0 1-3.483-1.42c-3.946.429-7.446 1.17-10.5 2.223C12.348 39.661 10.187 42 8.598 42c-.268 0-.518-.062-.75-.187l-.643-.322a2.934 2.934 0 0 0-.16-.134c-.179-.178-.232-.5-.161-.964.16-.714.66-1.531 1.5-2.45.84-.92 2.018-1.782 3.536-2.586.25-.16.455-.107.616.161.035.036.053.072.053.107.929-1.518 1.884-3.276 2.866-5.276 1.215-2.43 2.143-4.768 2.786-7.018a21.653 21.653 0 0 1-.817-4.273c-.116-1.384-.058-2.522.174-3.415.197-.714.572-1.071 1.125-1.071h.59c.41 0 .723.134.937.402.321.374.402.982.241 1.82a.58.58 0 0 1-.107.215.696.696 0 0 1 .027.215v.803c-.036 2.197-.161 3.91-.375 5.143.982 2.928 2.285 5.053 3.91 6.375zM8.518 40.554c.928-.429 2.152-1.84 3.67-4.232a15.27 15.27 0 0 0-2.344 2.25c-.652.785-1.094 1.446-1.326 1.982zm10.66-24.643c-.267.75-.285 1.929-.053 3.536.018-.125.08-.518.188-1.179 0-.053.062-.437.187-1.152a.604.604 0 0 1 .107-.214c-.018-.018-.027-.036-.027-.053a.205.205 0 0 1-.026-.08c-.018-.394-.134-.715-.349-.965 0 .018-.009.036-.026.053v.054zm-3.32 17.705a39.3 39.3 0 0 1 7.606-2.17 4.033 4.033 0 0 1-.348-.254 4.764 4.764 0 0 1-.428-.361c-1.358-1.197-2.492-2.768-3.402-4.715-.482 1.536-1.224 3.295-2.224 5.277-.535 1-.937 1.741-1.205 2.223zm17.303-.428c-.429-.429-1.679-.643-3.75-.643 1.357.5 2.464.75 3.321.75.25 0 .41-.009.482-.027 0-.018-.018-.044-.053-.08z" fill="#FDD137"/></svg>